<svg xmlns="http://www.w3.org/2000/svg" viewBox="0 0 64 64"><defs><style>.a{fill:#ffc90e;}.b{fill:#ff5d17;}.c{fill:#22b14c;}.d{fill:#00a2e8;}</style></defs><title>logo</title><polygon class="a" points="52.67 51.34 56.17 49.37 45.99 43.3 48.7 41.59 33.74 33 33 33 33 33.3 41.93 44.88 39.36 46.18 47.24 53.62 44.98 54.92 51.44 64 64 57.76 52.67 51.34"/><polygon class="b" points="30.26 31 31 31 31 30.7 22.07 19.12 24.64 17.82 16.75 10.38 19.02 9.08 12.56 0 0 6.25 11.33 12.66 7.83 14.63 18.01 20.7 15.3 22.41 30.26 31"/><polygon class="c" points="52.67 12.66 64 6.25 51.44 0 44.98 9.08 47.24 10.38 39.36 17.82 41.93 19.12 33 30.7 33 31 33.74 31 48.7 22.41 45.99 20.7 56.17 14.63 52.67 12.66"/><polygon class="d" points="22.07 44.88 31 33.3 31 33 30.26 33 15.3 41.59 18.01 43.3 7.83 49.37 11.33 51.34 0 57.76 12.56 64 19.02 54.92 16.75 53.62 24.64 46.18 22.07 44.88"/></svg>